<?xml version="1.0" encoding="utf-8"?>
<!-- Generator: Adobe Illustrator 21.0.2, SVG Export Plug-In . SVG Version: 6.00 Build 0)  -->
<svg version="1.1" id="Layer_1" xmlns="http://www.w3.org/2000/svg" xmlns:xlink="http://www.w3.org/1999/xlink" x="0px" y="0px"
	 viewBox="0 0 254.5 72" style="enable-background:new 0 0 254.5 72;" xml:space="preserve">
<style type="text/css">
	.st0{fill:#1D1D1B;}
	.st1{fill-rule:evenodd;clip-rule:evenodd;fill:#FFFFFF;}
	.st2{fill-rule:evenodd;clip-rule:evenodd;fill:#0072BA;}
</style>
<g>
	<g>
		<path class="st0" d="M1.4,47.5h6.2c2.3,0,5.7,0.7,5.7,4.6c0,2.1-1.4,3.6-3.5,4v0.1c2.4,0.2,4.1,1.9,4.1,4c0,4.5-4,5.1-6.3,5.1H1.4
			V47.5z M4.9,54.7h1.5c1.5,0,3.4-0.3,3.4-2.2c0-2.1-1.8-2.2-3.4-2.2H4.9V54.7z M4.9,62.5h1.7c1.7,0,3.7-0.4,3.7-2.5
			c0-2.3-1.9-2.7-3.7-2.7H4.9V62.5z"/>
		<path class="st0" d="M16.7,46.2h3.4v19.1h-3.4V46.2z"/>
		<path class="st0" d="M29.7,51.9c3.9,0,6.9,2.6,6.9,6.9c0,3.8-2.5,6.8-6.9,6.8c-4.3,0-6.8-3-6.8-6.8C22.8,54.5,25.8,51.9,29.7,51.9
			z M29.7,63c2.6,0,3.3-2.3,3.3-4.5c0-2-1.1-3.9-3.3-3.9c-2.2,0-3.3,1.9-3.3,3.9C26.4,60.6,27.1,63,29.7,63z"/>
		<path class="st0" d="M45.2,51.9c3.9,0,6.9,2.6,6.9,6.9c0,3.8-2.5,6.8-6.9,6.8c-4.3,0-6.8-3-6.8-6.8C38.4,54.5,41.4,51.9,45.2,51.9
			z M45.2,63c2.6,0,3.3-2.3,3.3-4.5c0-2-1.1-3.9-3.3-3.9c-2.2,0-3.3,1.9-3.3,3.9C42,60.6,42.6,63,45.2,63z"/>
		<path class="st0" d="M63.5,63.8L63.5,63.8c-1.1,1.3-2.5,1.8-4.1,1.8c-4,0-5.5-3.3-5.5-6.9c0-3.6,1.5-6.8,5.5-6.8
			c1.7,0,2.9,0.6,3.9,1.8h0.1v-7.5h3.4v19.1h-3.3V63.8z M60.4,63c2.3,0,3-2.4,3-4.2c0-1.8-0.9-4.2-3.1-4.2c-2.2,0-2.8,2.4-2.8,4.2
			C57.5,60.5,58.1,63,60.4,63z"/>
		<path class="st0" d="M78,52.9c1.3-0.6,3.1-1,4.6-1c4,0,5.6,1.7,5.6,5.5v1.7c0,1.3,0,2.3,0.1,3.3c0,1,0.1,1.9,0.2,2.9h-3
			c-0.1-0.7-0.1-1.6-0.2-2h-0.1c-0.8,1.5-2.5,2.3-4,2.3c-2.3,0-4.6-1.4-4.6-3.9c0-2,0.9-3.1,2.2-3.7c1.3-0.6,3-0.8,4.4-0.8h1.9
			c0-2.1-0.9-2.8-3-2.8c-1.5,0-2.9,0.6-4,1.4L78,52.9z M82,63.1c1,0,1.9-0.5,2.4-1.2c0.6-0.7,0.7-1.7,0.7-2.7h-1.5
			c-1.5,0-3.8,0.3-3.8,2.3C79.8,62.6,80.8,63.1,82,63.1z"/>
		<path class="st0" d="M91.5,52.2h3.2V54h0.1c1.1-1.5,2.5-2.1,4.3-2.1c3.1,0,4.5,2.2,4.5,5.1v8.3h-3.4v-7c0-1.6,0-3.8-2.2-3.8
			c-2.5,0-3,2.7-3,4.4v6.4h-3.4V52.2z"/>
		<path class="st0" d="M115.8,63.8L115.8,63.8c-1.1,1.3-2.5,1.8-4.1,1.8c-4,0-5.5-3.3-5.5-6.9c0-3.6,1.5-6.8,5.5-6.8
			c1.7,0,2.9,0.6,3.9,1.8h0.1v-7.5h3.4v19.1h-3.3V63.8z M112.7,63c2.3,0,3-2.4,3-4.2c0-1.8-0.9-4.2-3.1-4.2c-2.2,0-2.8,2.4-2.8,4.2
			C109.8,60.5,110.4,63,112.7,63z"/>
		<path class="st0" d="M133.2,50.3h-5.1v-2.8h13.7v2.8h-5.1v15h-3.6V50.3z"/>
		<path class="st0" d="M141.6,52.2h3v3h0.1c0.2-1.2,1.6-3.3,3.6-3.3c0.3,0,0.7,0,1,0.1v3.4c-0.3-0.2-0.9-0.3-1.5-0.3
			c-2.8,0-2.8,3.5-2.8,5.3v4.8h-3.4V52.2z"/>
		<path class="st0" d="M152,52.9c1.3-0.6,3.1-1,4.6-1c4,0,5.6,1.7,5.6,5.5v1.7c0,1.3,0,2.3,0.1,3.3c0,1,0.1,1.9,0.2,2.9h-3
			c-0.1-0.7-0.1-1.6-0.2-2h-0.1c-0.8,1.5-2.5,2.3-4,2.3c-2.3,0-4.6-1.4-4.6-3.9c0-2,0.9-3.1,2.2-3.7c1.3-0.6,3-0.8,4.4-0.8h1.9
			c0-2.1-0.9-2.8-3-2.8c-1.5,0-2.9,0.6-4,1.4L152,52.9z M156,63.1c1,0,1.9-0.5,2.4-1.2c0.6-0.7,0.7-1.7,0.7-2.7h-1.5
			c-1.5,0-3.8,0.3-3.8,2.3C153.8,62.6,154.8,63.1,156,63.1z"/>
		<path class="st0" d="M165.6,52.2h3.2V54h0.1c1.1-1.5,2.5-2.1,4.3-2.1c3.1,0,4.5,2.2,4.5,5.1v8.3h-3.4v-7c0-1.6,0-3.8-2.2-3.8
			c-2.5,0-3,2.7-3,4.4v6.4h-3.4V52.2z"/>
		<path class="st0" d="M188.9,55c-1-0.4-1.8-0.6-3.1-0.6c-0.9,0-2,0.3-2,1.5c0,2.1,5.9,0.8,5.9,5.5c0,3.1-2.7,4.3-5.5,4.3
			c-1.3,0-2.6-0.2-3.9-0.6l0.2-2.8c1.1,0.5,2.2,0.9,3.4,0.9c0.9,0,2.2-0.3,2.2-1.6c0-2.6-5.9-0.8-5.9-5.5c0-2.8,2.5-4.1,5.1-4.1
			c1.6,0,2.6,0.3,3.7,0.5L188.9,55z"/>
		<path class="st0" d="M192.4,52.2h3.3v1.9h0.1c0.8-1.3,2.1-2.2,4.1-2.2c4,0,5.5,3.2,5.5,6.8c0,3.6-1.5,6.9-5.6,6.9
			c-1.5,0-2.6-0.4-3.8-1.8h-0.1v6.8h-3.4V52.2z M195.8,58.7c0,1.9,0.7,4.2,3,4.2c2.2,0,2.9-2.4,2.9-4.2c0-1.8-0.6-4.2-2.8-4.2
			C196.7,54.5,195.8,56.9,195.8,58.7z"/>
		<path class="st0" d="M208,46.2h3.4v19.1H208V46.2z"/>
		<path class="st0" d="M215.6,52.9c1.3-0.6,3.1-1,4.6-1c4,0,5.6,1.7,5.6,5.5v1.7c0,1.3,0,2.3,0.1,3.3c0,1,0.1,1.9,0.2,2.9h-3
			c-0.1-0.7-0.1-1.6-0.2-2h-0.1c-0.8,1.5-2.5,2.3-4,2.3c-2.3,0-4.6-1.4-4.6-3.9c0-2,0.9-3.1,2.2-3.7c1.3-0.6,3-0.8,4.4-0.8h1.9
			c0-2.1-0.9-2.8-3-2.8c-1.5,0-2.9,0.6-4,1.4L215.6,52.9z M219.6,63.1c1,0,1.9-0.5,2.4-1.2c0.6-0.7,0.7-1.7,0.7-2.7h-1.5
			c-1.5,0-3.8,0.3-3.8,2.3C217.4,62.6,218.4,63.1,219.6,63.1z"/>
		<path class="st0" d="M229.2,52.2h3.2V54h0.1c1.1-1.5,2.5-2.1,4.3-2.1c3.1,0,4.5,2.2,4.5,5.1v8.3h-3.4v-7c0-1.6,0-3.8-2.2-3.8
			c-2.5,0-3,2.7-3,4.4v6.4h-3.4V52.2z"/>
		<path class="st0" d="M245.8,54.7h-2.5v-2.5h2.5v-2.6l3.4-1.1v3.7h3v2.5h-3v6.1c0,1.1,0.3,2.2,1.6,2.2c0.6,0,1.2-0.1,1.6-0.4
			l0.1,2.7c-0.7,0.2-1.5,0.3-2.5,0.3c-2.7,0-4.1-1.7-4.1-4.2V54.7z"/>
	</g>
	<g>
		<polygon class="st1" points="90.1,36.4 90.1,0.8 2.2,0.8 2.2,36.4 90.1,36.4 90.1,36.4 		"/>
	</g>
	<g>
		<polygon class="st2" points="90.8,36.7 90.8,0.5 1.3,0.5 1.3,36.7 90.8,36.7 90.8,36.7 		"/>
		<polygon class="st1" points="10,4 19.8,4 25.7,24.2 25.8,24.2 29.9,4 37.3,4 31.1,33.2 21.4,33.2 15.3,13 15.2,13 11.2,33.2 
			3.8,33.2 10,4 10,4 		"/>
		<polygon class="st1" points="40.2,4 48,4 45.7,15.2 54.9,15.2 57.2,4 65,4 59,33.2 51.2,33.2 53.7,20.7 44.5,20.7 41.9,33.2 
			34.1,33.2 40.2,4 40.2,4 		"/>
		<path class="st1" d="M85.6,10.6c-1.5-0.7-3.6-1.3-6.4-1.3c-3.1,0-5.6,0.5-5.6,2.8c0,4.1,11.3,2.6,11.3,11.5
			c0,8.1-7.5,10.2-14.3,10.2c-3,0-6.5-0.7-9-1.5l0,0l1.8-5.9l0,0c1.5,1,4.6,1.7,7.2,1.7c2.4,0,6.2-0.5,6.2-3.5
			c0-4.7-11.3-2.9-11.3-11.2c0-7.5,6.6-9.8,13-9.8c3.6,0,7,0.4,8.9,1.3l0,0L85.6,10.6L85.6,10.6L85.6,10.6z"/>
	</g>
</g>
</svg>
