<?xml version="1.0" encoding="utf-8"?>
<!-- Generator: Adobe Illustrator 21.0.2, SVG Export Plug-In . SVG Version: 6.00 Build 0)  -->
<svg version="1.1" id="Layer_1" xmlns="http://www.w3.org/2000/svg" xmlns:xlink="http://www.w3.org/1999/xlink" x="0px" y="0px"
	 viewBox="0 0 100 40" style="enable-background:new 0 0 254.5 72;" xml:space="preserve">
<style type="text/css">
	.st1{fill-rule:evenodd;clip-rule:evenodd;fill:#FFFFFF;}
	.st2{fill-rule:evenodd;clip-rule:evenodd;fill:#0072BA;}
</style>
<g>
	<g>
		<polygon class="st2" points="90.8,36.7 90.8,0.5 1.3,0.5 1.3,36.7 90.8,36.7 90.8,36.7 		"/>
		<polygon class="st1" points="10,4 19.8,4 25.7,24.2 25.8,24.2 29.9,4 37.3,4 31.1,33.2 21.4,33.2 15.3,13 15.2,13 11.2,33.2
			3.8,33.2 10,4 10,4 		"/>
		<polygon class="st1" points="40.2,4 48,4 45.7,15.2 54.9,15.2 57.2,4 65,4 59,33.2 51.2,33.2 53.7,20.7 44.5,20.7 41.9,33.2
			34.1,33.2 40.2,4 40.2,4 		"/>
		<path class="st1" d="M85.6,10.6c-1.5-0.7-3.6-1.3-6.4-1.3c-3.1,0-5.6,0.5-5.6,2.8c0,4.1,11.3,2.6,11.3,11.5
			c0,8.1-7.5,10.2-14.3,10.2c-3,0-6.5-0.7-9-1.5l0,0l1.8-5.9l0,0c1.5,1,4.6,1.7,7.2,1.7c2.4,0,6.2-0.5,6.2-3.5
			c0-4.7-11.3-2.9-11.3-11.2c0-7.5,6.6-9.8,13-9.8c3.6,0,7,0.4,8.9,1.3l0,0L85.6,10.6L85.6,10.6L85.6,10.6z"/>
	</g>
</g>
</svg>
